<mxfile host="app.diagrams.net" modified="2023-07-11T14:40:22.580Z" agent="Mozilla/5.0 (Windows NT 10.0; Win64; x64) AppleWebKit/537.36 (KHTML, like Gecko) Chrome/114.0.0.0 Safari/537.36" etag="7M8CdGdVz0NIt5mNtg8h" version="21.5.2" type="github">
  <diagram id="C5RBs43oDa-KdzZeNtuy" name="Page-1">
    <mxGraphModel dx="1434" dy="796" grid="1" gridSize="10" guides="1" tooltips="1" connect="1" arrows="1" fold="1" page="1" pageScale="1" pageWidth="827" pageHeight="1169" math="0" shadow="0">
      <root>
        <mxCell id="WIyWlLk6GJQsqaUBKTNV-0" />
        <mxCell id="WIyWlLk6GJQsqaUBKTNV-1" parent="WIyWlLk6GJQsqaUBKTNV-0" />
        <mxCell id="0XEINIG4Xil1TnZNtXwT-3" value="" style="edgeStyle=orthogonalEdgeStyle;rounded=0;orthogonalLoop=1;jettySize=auto;html=1;" edge="1" parent="WIyWlLk6GJQsqaUBKTNV-1" source="0XEINIG4Xil1TnZNtXwT-1" target="0XEINIG4Xil1TnZNtXwT-2">
          <mxGeometry relative="1" as="geometry" />
        </mxCell>
        <mxCell id="0XEINIG4Xil1TnZNtXwT-1" value="Start" style="rounded=1;whiteSpace=wrap;html=1;" vertex="1" parent="WIyWlLk6GJQsqaUBKTNV-1">
          <mxGeometry x="240" y="30" width="120" height="60" as="geometry" />
        </mxCell>
        <mxCell id="0XEINIG4Xil1TnZNtXwT-79" style="edgeStyle=orthogonalEdgeStyle;rounded=0;orthogonalLoop=1;jettySize=auto;html=1;entryX=0.5;entryY=0;entryDx=0;entryDy=0;" edge="1" parent="WIyWlLk6GJQsqaUBKTNV-1" source="0XEINIG4Xil1TnZNtXwT-2" target="0XEINIG4Xil1TnZNtXwT-5">
          <mxGeometry relative="1" as="geometry" />
        </mxCell>
        <mxCell id="0XEINIG4Xil1TnZNtXwT-2" value="Login &amp;amp; GOTO&lt;br&gt;Dashboard" style="rounded=1;whiteSpace=wrap;html=1;" vertex="1" parent="WIyWlLk6GJQsqaUBKTNV-1">
          <mxGeometry x="240" y="170" width="120" height="60" as="geometry" />
        </mxCell>
        <mxCell id="0XEINIG4Xil1TnZNtXwT-5" value="" style="shape=image;verticalLabelPosition=bottom;labelBackgroundColor=default;verticalAlign=top;aspect=fixed;imageAspect=0;image=data:image/png,iVBORw0KGgoAAAANSUhEUgAAAK0AAACSCAYAAAA3g0o7AAAAAXNSR0IArs4c6QAAAARnQU1BAACxjwv8YQUAAAAJcEhZcwAADsMAAA7DAcdvqGQAABnXSURBVHhe7Z0LlBVFese/AUZwYZgBkddRQEBGzS4PncX44nE2sioMaHZjRJdVo7Bmj66yupuTxKNg1n36jORkRXfBEPGoWVGYJCtJ5CGo4CCPdYXhIaDrIILMjAzI+6b+1VXDd6v73lt9p/veHq3fOXX6q+rqx53+99dfPbqnpOOIZ1LkcLQh2qmlw9FmcKJ1tDmcaB1tDidaR5vDidbR5nCidbQ5nGgdbQ5fP237EV9VFiNVImpi6WWlHUSu9QB19PpcNi8zMeuDTHU5QXV1GTDL+TEyHU+v43Uyka2OeQyzXq71wKaOLXp7cz82xzaxOZeUqGTWOXqMjr+7SWU8fKItvfoKKundU+UcjuJyfMVqe9Ge+HAX9T6tlE6rOIU6neKiCEdhaD54jHbUH6Yj4ule0qdnONGObNpIC247g8rKytQah6MwbKzbQaMXdKFD3XsEijajC/3GhT2dYB1FYcjgM+n0bqUq58cvWuV3O3Xq5BkOR4Fp3749dezYQeX8uGDVkUiydTQ40ToSSVpDyyBAtLk60xyO+NEqLAnQo/O0jkSiPW0qwOf6RWvpaFfs8pYrxfLp9/z2Gx+ftN/MYL+1m9msfBUrX53BfvsTZrPyWla+Zg+zWfk7rJzba5m9bm+wvT6DvYHbnwbbf8hgv7vvpP3HDPZ7Dcxm5RtZ+aYMdl0js1n5Zla+pYnZrHwrK+f2Nma//1mwvT2DvUPYtgTJMW9P23iYaM/nno0/osbZHs72CLL3HTqpnXzwDy5MukKORMwcfoCmj+ysSh2OwnL+3AO09UhnOrHibTr27kZV6pG3p51QQ7S8XmUcjhB8bynRc5tVJg/yjmnn/gXRed1VJmE89thjMjmSyYN/TnR5P5XJgV1DLFsHGaNHJy8liaVLl9KMGTOkYB9//HG53LFjh1rbehobG+U+scwFjovzsambDWwfdl+6fpS/PUrCaCfQhyKm5anLjE9SZU+mUo+sak5lY/yiVGrZRyqTAO68807cboFpzJgxqe3bt6uaHg0NDbJc11m7dq1a4wd177///lRFRYWsCzsTvJ5OQcfPhXlMm33NmTMnNXz48LT6AwYMkOVJYtqSVGp+ncpkYMScZqnDzlNWp+kTyS/ambutRPvpIS8lgWyC1QkXUwOB9u/fP239kiXiLxlAUF0IKYgbb7wxrR5P2CbbjWEybNiwwP0gQYimcHP9DR599FFVs/jYaEeL9itTVqXpEynv8KB7Ry8VGzwyEQpoxMUjIVASF52E2FSpVw5efvllGjt2LO3cuVPms7Fu3bq0ukJ4cj8LFiyQec7cuXPpmWeeUTk/OM9rrrlG5bKDEGf9+vUq5weP/ZtuuknlvH3zY+M8+W8HM2fOtA4v4iaMdoLCgzbfewBhcXDBcdFGjBghL654xMqkLzJEa3PxsO3VV1/dUnf06NEkPKWMacUjWpZxcFyO8NwkvCEJ76tKTsaaucANoBFetWVfuBE1y5Yta9kXfi/qYCk8KonQQh4Ltga/A789CYTrPfDLNkC0Qdr2M+9yoq+dpjJFBBeVY4oHeV4GLwwBImUD22gPO2nSJCkQ81gaCIR7bggVwkZ9sxcjmzcGOA7fFzy73hcXM+AixO+CsO+66y5VQmk2SIqn/flFRFekPwgyYtd7YBkfdBPuHanY4GJyASJUwIXX3sYEFxLrtZcKAttxccHjQnwQcpC3Mr09f3TD+0FQmmzHBea++Law+WPf/H04FsfcV6abrtC0VjttPjwAEJR5wV555RUZj5qe1wbTO9588800ffp0GRciLj3rrLPSBJNLPPyxnsvbmeu5aAGOrckW9wLcbBoIlueLSfSDC5Y8O05cjB4qU2RwYRFvmo0PiAlCw/owj8ZcYsB+uQDMfZui5YQVbbZ9ZYOHNwBxfVL45cVEV1k6fcuGmF1MW36Kl5ICPAnENGfOHJ94IcIwHhexoQb7RSMnlUrJfWuwT/2oDyOsXHXN9WFuNo2+WTUIn3jIUmzCaCcoWM07pk3q3ANcHDxC8UjmAkCsm48A4KF0bwH2rbvOQCbRmrEk93i54spcouV58+YEWM97N3A8swFXbMKEB5F62vkiPBiekPAgCHR5cYEBU0w2mCLieS0gM+40j8PzQULjmPviDT94UL4vsy4ICgty3SiF5lciPBhvfUp+PfpFa6dZ6ircO1ISwMWEdzU9SlB/qg18O94og0j5MbRosDS9Os4JQETcO/JYGAJEww4NRl0/aF96+1y/D+vNgZYkhQWaMNoJ6vL6Qsw9EN4Lv0wm4VVkXsRxvnITvQ6JD+PC5uuwrbj4vnkAfChVeLS0daiL7XgZ8nobzC3IdH62++Jgv+b54Zx5CjOMHCdh5h4EDeMGiNZu7sH+I14qNkEXKygFTRrh67lowaRJk9LWmwnC4pgiDEr8HHDe5nrsA9jsa8GCBbKuJld9pKRMnLHRTri5B5Z0KfVSsREeR3Z3ZRrhEoKWcwWEp1ElduBRa8bEAPvD8KjZG4FyNMwwemait+HngPPm54xjoR7Q+xJClHkO1uH38DAD58rj2Ezo/Reb1mon79dt0Hvw4/OJRvVVBQlAN1Qw6oXYEMtscS0fnTJjSY3eJ5ZYD7Hkuvioj4RYFOLEOWTaRje0MnX84xxxbOwL5xh0nliPlItMv7HQoPdgjNDN5CGqIAD9uo3lB+iupJLep+cU7cFj3vIrmb9eUzTQsIEXC9M36ygcNtq5QIh2SwbR+sMDGerlBgdMomBBeXm5shxJxEY72VQY0OVl1+eV5BcbEeOZM5wcyaFocw9euIKoKqEfDEfcloTYzRHMo5cSTRqoMjmI9LNISQ4PHMkmjHYs59PakeTwwJFsog8PLBti/3El0cheKuNwhODxy4iuGaQyeZB3Q6xTey85ksOaWqInf52SaekSVZhAWqudvD1tksMDdMhjoguSTad7FGCQAL0WSJmOiTp88kxU1IvrMO3WFC1aeIL69CUaUokXK09Q9VUn5LqkYRMeaNcZ5ELzHhE7fNxbdkyYt8WAAiZAYzgVAkHC6FTcYEAjJW549FrgTdnt27f7ejAwOgZR5zv7LBMQbPVEJM8H7d9PhP/xUleXohn3pWj20+1kPinYaCfcB+gswwMcMGmChYeDYDE2D68Gj8vno0YFn0rIwdwCfTw+RBwnCAn69j0pWHjW2lrPD1VWltCYsSXCA9s9PQtFGO1Yfsur7YYH8KjwbnwcH94NAsKLiQAvKUJwGHyAyFAOGx4aNvaBOa5YBy+t10Go+kZAwn7MRz3msmLyOd6awDmgPrYzBzrgbXm5PgeU6acCPybOV8+7NZ8aECiEqYFH5W4H6zbXqUxCiGFwwc7TLriK6KLeKpMQIFgdEnBw0TETDOB9L4B3vDCBBDP79YuMsCE2iA7igLiwDtvjWwYQF24CzL5C3nz8Y74DZnNhG4hNz+TC6+jcM+O4vBxPBtTFcSFWHBfr9Mc2EJsj3MB68wYwQWiAlGRmjSL69mCVyYMA0dp52lKxJVKSQKwIQWGpQwOIAOJqamqSYsZSw2c9QTS6Hmxspz029qfjUKzjS46+aTD3AUt446B6QeU4FxxP33T4Haij9wkb54Dz4lxQBW+rMgEgrkWdJBFGO0Eu1L9pG597ALFCAHicwivhouNio5GkX3gEfK4qbC1ePVdWi52v09vo/XPviXXwkDgmBAYB6plm+phaqCiH9zTLcRwkhCYow/ni92AfOFZQSFJVVSLi2pQUJ0B4oEWK+LZGxLNJE2248MCvx4z/GzdX78FxtVV7O407YqS+PkV3T4c4S2jiRO+C4I2hpSLNeKBENsiShI12ss2n9Xtau+hAHtAJNhn07VtCzz3fTvbPzn/2hEzwuLOfTp5gQWu1ExBZ2O3NzT1IHvCyMx5oJ9P1N5QI4SbTq8TQe2DnaheOJ7q0j8o4HCH419FEf322yuQg6LazbMP5aSf2huRwhCWMdkwXOvnKAfmL1oUHjnzJNzz46uAK+tmdw6ndv/xDFZXz93kt74CaCcl6E9fRdnhyTPY3cYO4ZMTpVDNrDJWXlVK768efRcvnXi4LJSn3zHckh1M7dqCf/mBYi2CBDA/69eksCxc9MZp6WH6i2YUHjnyxCQ86qKD37245j267Nt0tp8W0l4zoSYPO7KJy2XHhgSNfbMKDU9Us8U6n+KeD+RpilpO86ISoh+RwhCWsdsyZBT7RWk49oIn/SbRil8o4HCH422VEz29RGQtMR5p3l5cLDxz5kk/vASdNtFC0bXiASQ964oPDEYaw2skZHtgySYQHK1144MiD74vw4IUQ4YFJmmihaNuY1oUHjnwJGx6YT/+SgwcPthSdOCE86OKOtHpPu5zzaY+KuqAYby8sX7ObFi75QC6b9h9RpQ4bystOoQqRJo45k6pF6t/XroszSmy0M/qFw7S2sSM9WHWUbj1XfRtUkSZaKLr69x3p7b25RYvBhUJ/VPknT66nWfM3UqMTamSMqupND91dRUMru6uS+MHgQq6PKnPR3nLOsbQIwNcQS2J4sLO+mUZeVyNF6wQbLctrP6aRk2voRw+9rUriJ9LeA1vBAnxwQX90IU421O2jC8UfdcPmfarEEQdPiCfYyOsWFcQphNWOqcu8I9Jv/TfRqt0qExPwsOOmLXbetUBs2NxA1/4w/o+A/eB1ope2qUwe+ERr208bd3gAoY6b6gRbaNC4jTtUiHxwwTZEOCTcO1JcIH7duatZ5RyFBKECYt24CKsd05HmHdN+W4QHq2MKDxAWoJfAUTzgNOLiThEeLIgqPLANDUCc4cHy2piDZUdOECbEFZpFGh6EAf8LSv8/qKiZV9OK25DRv8/Jfub+fTvLTnUN8mnrha3zQ4d0a8mPuqBXSzLh22sqykpb6vP1/PjYv7ZRX+ez1df7lOeW4dx5PaTWsmjph8qKlrDaydp7gJW23vba3xPVfqIyERNFPIWL9tTMS1SO6N7vDZMjQJpRF/SWZZp7bxtOUyYOlhf+xUfGipISmX/onq/LJZLJ4qe+6RPH0CHd5XFvv+E8uR77AzjW7defK+2JY/vR7BkXS3vVc9U0rLK7rJd2PsLW27746Fi5P5wD6vbv00XuW4sa545Bgu+q80WqFsdoLcvXxBPXTl9B9Mr7KpMHeXvauMIDxLNRgOFJXEiICp5pSvVgWaaBKLBeX3iAehAsei10IxAX7ie/Xida1KtlXjOlepAcEuVC0+zcdUB2HaFvGQLFfnGTQLQ4HuLFAeJcFs8eJ0OheYu2yREpiFJ6XHW+fJRq1rPvyfNAXYBjY3t+/veIVv9C4R2RougBaPosGeFB1oYYsG2MxRkeRAE8EuYnQFxTJgySthYByrRYtPcD1WP6SS/Pey2+I8Sz+OkrRL3zVIkH9nHt3UvljaA9ogb51c9NoMuEUOct3EZ3TD5XHP9D+bj9jtgOTJ3xhjyfHz3siWt0VS85kILzwY2A8xgmvLbmqQculeeBGw2gTxXiNIUbJXHFtK3Vjq8hloTwIAognFnPbZKPSVzoWfM3CRGcfFQPrewmJ41o7wf+XYgYYr932lCZB+jFqBz/u7TWtIwZxT5RDx7vDiZ8AEH9lRD0ORNeoqbmI+ocvDhT14UgMNlHCwOP/HserpU3A7wyxIxz1Iy79VV5Hjx0wjmhwcTDnrbAFy48gAiiAF4Mngui21l/QD7msW+IVD6+haggLHg/7W0hIJThMQ1BA4gI3gxJM2XiIPkohrfEiJ0ZZgCEOdgfBAWvjuOhLsrNOBjgfCFIeH/0k+KceTjz1MyL5TmY4QjOY96irSoXLXF58Nb2HuQ9NbH5qLdszf/tz0Tl+JdaPbCACw6B6D88BIQyPZVRezjzwqCcl/GbSMfbet8afgzA15vrzPMx9xm0HkuN9s58W4DtUG4erzWgQcfDp6iw0Y71LK8wgwvXvUr0zh6ViZjqsa1/3OkLiounLyDKeB7oPC/neWyjk4bbgG8L+HpzHc8H7TNoPZY6BW0LdDnfvrUEPRGi4O6VRIu2q0we+MID25g2zsEF/Wh2FA/0YPDeiygJGx5k7acFtt52v3DxSHGAGDGuu9xhR1BXXlSE1U7OLi9bTztZhAdrYwoPADrodXzmKCxwGOgnjot7RHhQE2V4YOtp456aiIbGP7KuJ0dhQFjARxLjIPK5B7aetknE+khxcscN56X1mTriBfMgXnx4bFpvRRyE1U7WmNZWsOCGxUTr96pMjGBc3Qk3fuBhMQ8irsYX58dvEP1XK/7Pdppow3R5xR0ecCDcupq/dI2zGIB3hVOAYOP2sJpIw4MwnrbhsJcKBf6gmNmEUSGMUvGpeY7wwAFArJtqviWdQiEbva3Vjm9EbOKryf3ugQk60TFU67AHNz9G+YrZM9Pa7x7k/bEOhyNOrIdxw7BPuHckhyMsrdVO3qL97v8QvfupyjgcIfj7N4le3akyeeALDxDT2szySgKYYmhOHHHkBnONkz7aaP0BujBTE/d+7i17nOotCwUmPWOOrDcZOkXlXdxQbxgwKb1x/1HZH4tJ8ZhjUKiuLo2NdqwbYmFEW+jeA4gVM/U31H1Kt08+15tUI5IjPOh1wU2PCfCYdI4uxEKKN2zvgelpfYMLtn21hRxcgFiv/eFrNOr8ni39ik6w+YPQAC9cYo4BBm2AfquiEET6YmOYwYU9wsUjxQ0Ei9dJFs/+ZsE7wb8MwLtCvFMmDPS+TlmAfu+w2jFHan2e1pab/49oY4PKxAQXbCHGxL/MwCHcPvmcgnjce1cR/W+I74BE5mnjDg/wh4NoIdhCNxS+rEC4eMV96v0rVUk8RP7mgi27D3opLvCmK8bGnWALCxpkcBj6oyBxEFY7WT1tmPDglteI6hpVJmLQU7Czfn/gp4gc8YI2A+Yxx/nVyvtWE732J5WxIKunhaJthRtneDBv4VbCByucly0OCBHgbfmHQaIk0qmJEKxtXLvrgJfiYP3mBtl3WAzgYXgLWufxUQzZvymeAghddNpQ1yBjb4B1+kKjTDdosJ2ur/eD7bQ343WBrlMs4G0vu6CX/FJOHITRTpAm826ITV1CtKVJZSLEu6D7itZb0K9PZykaACE9Mf89eS6LlnwoR5N2ftQskghdJgyUqV/fzi3iwxMC39cCKNNPCnxgA+tQH78Nn19qFPvC98WAFw6dFK0+VjEZXdVbOI94ur9miD/v0o9UJgdBmvR52mKHB/oLMMXqj0Wnu340wgPi43Um2uNiifPEWD4aLvj0EkaZIFyUmWCuBLbBjZF0MDyOGzQOIn9zwdbb1gv3jvRFBA1ACFYOcVo0BjE698SzG2XLG2HNtPtXyu99meBmwE35QVxxVRuhtdpJE20YponwYGsM4UESwPerEM/J13oCGoP4tizEPOyc02Qer67gW7T6G7TwprBNsA2+oBj02JUz1pQnlnlxVZH/IjJThAfLLMMDYD79faItdngAkeCRW8z/bIPj45sL/Csr+OwmHpnlZaVSWFPvWyETgKfVfcrYNkjsEDbqfyC87b3Thol9lbbE7ZhthZgX6714vpv8gDLycbXgc4EbK652RZjwIEiPabO8AF63sZnl9SelqTNi6JUaN/VVGVvG8cU+hx0Yzp1SLRqbMXxpxkY7oV63sY1pb1tK9P5nKhMxEKxuWTsKj26IBoU4UfBPtUSv16uMBVnDAwi22OEBQOc2YspiPRq/7MhekwzxfBRE2nsQBrh47eajBnEhQgP88RyFBV4WvSY8no+asNoxn/4+T5uE8ABAtPgDOuEWDjQw8Z994p6oFDY8MEkTrW1oAOKemghviy/KYGTJCTd+tGCHVXaTUxTjJPLBBVvhfrDfS3GCux2fQUJ3kBNufOCJduF1NcJRlNLsmD/zCVqrnTTRtgsR4X5/GdGOmEUL0FcIjwvhVk54KdZ5nl824F3hDPCaTfXYM9L+C2ScPLiGaOUulcmDvN/GLQYtHlc8DtBZL/89Z0wd4F9U9FAy5kd43Vq9ZKMraS+KWn/3AOGB7cc6ficcXlVPrxX4b3VenIK7R9tvfEz0zCbPflPYcwPst3YTzdmobFE+R5WvEuW/VeX49/y/MewbunxMT7/eQCsOlVOP9Wtob4cudOCsgVTxTi0d7dY92K4Q9kBd3k2UD/LbFcIemN0+Vl5BzYMGZ7WPCvtAkN21nA4MPttvlwt7UEB5mt1V2EM8u0zYZ3v2MVHerMqPifJmXZ5mlwm7UtqdenWn1NA/o2k999JFo8+m2VtK5d8WM/YeWuv9nbc0CnudZ2Oo/leqnNvbhP1LZaNB/ot3/PZ2Yf88wIZOMLDQv0yJKYBsoiWIVqcDBw6mvvHS8VTZk6nUI6uaU9l4vd5brhDL+XV+e+Wuk/YbGew3P2Y2K3+Lla/KYK/ezWxW/jYrr/2E2ax8DSvn9jvMXrsn2F6XwV7P7b3B9oYM9h8+PWm/m8H+4z5ms/L3WPnGDPamBmaz8jpWvrmR2ax8Cyvn9lZmb2sKtt/PYG8Xdi5GPX9I6vCf1xxp0adOPk/rvproSAKhhnHDdHs5HIXA1KSvy8vhSBqmLtNE67ysI4lk9bQOR1vAJ1oXIjiSRtbwACtdiOBIOr6Y1nlaR9JxMa0jkWR74vtEqyufwEQEh6NI6Cc+9GgK2BceaA4fPkrHjx9XOYejcOzfj+mDmV1txrdx7/va53Tq8X3UtWtX6tChg1rrcMQHnu5HjhwRKUUv1FfI6QQ//bo3jMvxiRazvFZ94kJdRzL42cij9DeVFqJtOJzuml1XmCN+IEOITC89zd005Fhu0Zq4LjBHYfFEm81J5hStw5E0XPDqaHM40TraHE60jjYG0f8D9hdXpE2nkXMAAAAASUVORK5CYII=;imageBackground=default;imageBorder=default;" vertex="1" parent="WIyWlLk6GJQsqaUBKTNV-1">
          <mxGeometry x="213.5" y="350" width="173" height="146" as="geometry" />
        </mxCell>
        <mxCell id="0XEINIG4Xil1TnZNtXwT-21" value="Assets" style="childLayout=tableLayout;recursiveResize=0;strokeColor=#98bf21;fillColor=#A7C942;shadow=1;" vertex="1" parent="WIyWlLk6GJQsqaUBKTNV-1">
          <mxGeometry x="130" y="510" width="520" height="560" as="geometry" />
        </mxCell>
        <mxCell id="0XEINIG4Xil1TnZNtXwT-22" style="shape=tableRow;horizontal=0;startSize=0;swimlaneHead=0;swimlaneBody=0;top=0;left=0;bottom=0;right=0;dropTarget=0;collapsible=0;recursiveResize=0;expand=0;fontStyle=0;strokeColor=inherit;fillColor=#ffffff;" vertex="1" parent="0XEINIG4Xil1TnZNtXwT-21">
          <mxGeometry width="520" height="74" as="geometry" />
        </mxCell>
        <mxCell id="0XEINIG4Xil1TnZNtXwT-23" value="Element" style="connectable=0;recursiveResize=0;strokeColor=inherit;fillColor=#A7C942;align=center;fontStyle=1;fontColor=#FFFFFF;html=1;strokeWidth=1;fontSize=26;" vertex="1" parent="0XEINIG4Xil1TnZNtXwT-22">
          <mxGeometry width="172" height="74" as="geometry">
            <mxRectangle width="172" height="74" as="alternateBounds" />
          </mxGeometry>
        </mxCell>
        <mxCell id="0XEINIG4Xil1TnZNtXwT-24" value="old" style="connectable=0;recursiveResize=0;strokeColor=inherit;fillColor=#A7C942;align=center;fontStyle=1;fontColor=#FFFFFF;html=1;strokeWidth=1;fontSize=26;" vertex="1" parent="0XEINIG4Xil1TnZNtXwT-22">
          <mxGeometry x="172" width="176" height="74" as="geometry">
            <mxRectangle width="176" height="74" as="alternateBounds" />
          </mxGeometry>
        </mxCell>
        <mxCell id="0XEINIG4Xil1TnZNtXwT-25" value="new" style="connectable=0;recursiveResize=0;strokeColor=inherit;fillColor=#A7C942;align=center;fontStyle=1;fontColor=#FFFFFF;html=1;strokeWidth=1;fontSize=26;" vertex="1" parent="0XEINIG4Xil1TnZNtXwT-22">
          <mxGeometry x="348" width="172" height="74" as="geometry">
            <mxRectangle width="172" height="74" as="alternateBounds" />
          </mxGeometry>
        </mxCell>
        <mxCell id="0XEINIG4Xil1TnZNtXwT-26" value="" style="shape=tableRow;horizontal=0;startSize=0;swimlaneHead=0;swimlaneBody=0;top=0;left=0;bottom=0;right=0;dropTarget=0;collapsible=0;recursiveResize=0;expand=0;fontStyle=0;strokeColor=inherit;fillColor=#ffffff;" vertex="1" parent="0XEINIG4Xil1TnZNtXwT-21">
          <mxGeometry y="74" width="520" height="71" as="geometry" />
        </mxCell>
        <mxCell id="0XEINIG4Xil1TnZNtXwT-27" value="Current balance amount" style="connectable=0;recursiveResize=0;strokeColor=inherit;fillColor=inherit;align=center;whiteSpace=wrap;html=1;" vertex="1" parent="0XEINIG4Xil1TnZNtXwT-26">
          <mxGeometry width="172" height="71" as="geometry">
            <mxRectangle width="172" height="71" as="alternateBounds" />
          </mxGeometry>
        </mxCell>
        <mxCell id="0XEINIG4Xil1TnZNtXwT-28" value="&lt;div&gt;&amp;nbsp; &amp;nbsp; font-weight: normal;&lt;/div&gt;&lt;div&gt;&amp;nbsp; &amp;nbsp; font-style: normal;&lt;/div&gt;&lt;div&gt;&amp;nbsp; &amp;nbsp; font-size: 30px;&lt;/div&gt;&lt;div&gt;&amp;nbsp; &amp;nbsp; line-height: 32px;&lt;/div&gt;" style="connectable=0;recursiveResize=0;strokeColor=inherit;fillColor=inherit;align=center;whiteSpace=wrap;html=1;" vertex="1" parent="0XEINIG4Xil1TnZNtXwT-26">
          <mxGeometry x="172" width="176" height="71" as="geometry">
            <mxRectangle width="176" height="71" as="alternateBounds" />
          </mxGeometry>
        </mxCell>
        <mxCell id="0XEINIG4Xil1TnZNtXwT-29" value="&lt;div&gt;&lt;span style=&quot;background-color: initial;&quot;&gt;font-size: 40px;&lt;/span&gt;&lt;/div&gt;&lt;div&gt;font-weight: 500;&lt;/div&gt;&lt;div&gt;line-height: 45px;&lt;/div&gt;&lt;div&gt;letter-spacing: 0px;&lt;/div&gt;&lt;div&gt;&lt;br&gt;&lt;/div&gt;" style="connectable=0;recursiveResize=0;strokeColor=inherit;fillColor=inherit;align=center;whiteSpace=wrap;html=1;" vertex="1" parent="0XEINIG4Xil1TnZNtXwT-26">
          <mxGeometry x="348" width="172" height="71" as="geometry">
            <mxRectangle width="172" height="71" as="alternateBounds" />
          </mxGeometry>
        </mxCell>
        <mxCell id="0XEINIG4Xil1TnZNtXwT-30" value="" style="shape=tableRow;horizontal=0;startSize=0;swimlaneHead=0;swimlaneBody=0;top=0;left=0;bottom=0;right=0;dropTarget=0;collapsible=0;recursiveResize=0;expand=0;fontStyle=1;strokeColor=inherit;fillColor=#EAF2D3;" vertex="1" parent="0XEINIG4Xil1TnZNtXwT-21">
          <mxGeometry y="145" width="520" height="68" as="geometry" />
        </mxCell>
        <mxCell id="0XEINIG4Xil1TnZNtXwT-31" value="&quot;Current Balance&quot; subtitle" style="connectable=0;recursiveResize=0;strokeColor=inherit;fillColor=inherit;whiteSpace=wrap;html=1;" vertex="1" parent="0XEINIG4Xil1TnZNtXwT-30">
          <mxGeometry width="172" height="68" as="geometry">
            <mxRectangle width="172" height="68" as="alternateBounds" />
          </mxGeometry>
        </mxCell>
        <mxCell id="0XEINIG4Xil1TnZNtXwT-32" value="font-weight: normal;&lt;br&gt;&amp;nbsp; &amp;nbsp; line-height: 21px;" style="connectable=0;recursiveResize=0;strokeColor=inherit;fillColor=inherit;whiteSpace=wrap;html=1;" vertex="1" parent="0XEINIG4Xil1TnZNtXwT-30">
          <mxGeometry x="172" width="176" height="68" as="geometry">
            <mxRectangle width="176" height="68" as="alternateBounds" />
          </mxGeometry>
        </mxCell>
        <mxCell id="0XEINIG4Xil1TnZNtXwT-33" value="&lt;div&gt;&lt;span style=&quot;background-color: initial;&quot;&gt;font-weight: 450;&lt;/span&gt;&lt;br&gt;&lt;/div&gt;&lt;div&gt;line-height: 20px;&lt;/div&gt;&lt;div&gt;letter-spacing: 0px;&lt;/div&gt;" style="connectable=0;recursiveResize=0;strokeColor=inherit;fillColor=inherit;whiteSpace=wrap;html=1;" vertex="1" parent="0XEINIG4Xil1TnZNtXwT-30">
          <mxGeometry x="348" width="172" height="68" as="geometry">
            <mxRectangle width="172" height="68" as="alternateBounds" />
          </mxGeometry>
        </mxCell>
        <mxCell id="0XEINIG4Xil1TnZNtXwT-34" value="" style="shape=tableRow;horizontal=0;startSize=0;swimlaneHead=0;swimlaneBody=0;top=0;left=0;bottom=0;right=0;dropTarget=0;collapsible=0;recursiveResize=0;expand=0;fontStyle=0;strokeColor=inherit;fillColor=#ffffff;" vertex="1" parent="0XEINIG4Xil1TnZNtXwT-21">
          <mxGeometry y="213" width="520" height="72" as="geometry" />
        </mxCell>
        <mxCell id="0XEINIG4Xil1TnZNtXwT-35" value="‘What is this balance’" style="connectable=0;recursiveResize=0;strokeColor=inherit;fillColor=inherit;fontStyle=0;align=center;whiteSpace=wrap;html=1;" vertex="1" parent="0XEINIG4Xil1TnZNtXwT-34">
          <mxGeometry width="172" height="72" as="geometry">
            <mxRectangle width="172" height="72" as="alternateBounds" />
          </mxGeometry>
        </mxCell>
        <mxCell id="0XEINIG4Xil1TnZNtXwT-36" value="existing" style="connectable=0;recursiveResize=0;strokeColor=inherit;fillColor=inherit;fontStyle=0;align=center;whiteSpace=wrap;html=1;" vertex="1" parent="0XEINIG4Xil1TnZNtXwT-34">
          <mxGeometry x="172" width="176" height="72" as="geometry">
            <mxRectangle width="176" height="72" as="alternateBounds" />
          </mxGeometry>
        </mxCell>
        <mxCell id="0XEINIG4Xil1TnZNtXwT-37" value="remove" style="connectable=0;recursiveResize=0;strokeColor=inherit;fillColor=inherit;fontStyle=0;align=center;whiteSpace=wrap;html=1;" vertex="1" parent="0XEINIG4Xil1TnZNtXwT-34">
          <mxGeometry x="348" width="172" height="72" as="geometry">
            <mxRectangle width="172" height="72" as="alternateBounds" />
          </mxGeometry>
        </mxCell>
        <mxCell id="0XEINIG4Xil1TnZNtXwT-38" value="" style="shape=tableRow;horizontal=0;startSize=0;swimlaneHead=0;swimlaneBody=0;top=0;left=0;bottom=0;right=0;dropTarget=0;collapsible=0;recursiveResize=0;expand=0;fontStyle=1;strokeColor=inherit;fillColor=#EAF2D3;" vertex="1" parent="0XEINIG4Xil1TnZNtXwT-21">
          <mxGeometry y="285" width="520" height="69" as="geometry" />
        </mxCell>
        <mxCell id="0XEINIG4Xil1TnZNtXwT-39" value="Info Icon" style="connectable=0;recursiveResize=0;strokeColor=inherit;fillColor=inherit;whiteSpace=wrap;html=1;" vertex="1" parent="0XEINIG4Xil1TnZNtXwT-38">
          <mxGeometry width="172" height="69" as="geometry">
            <mxRectangle width="172" height="69" as="alternateBounds" />
          </mxGeometry>
        </mxCell>
        <mxCell id="0XEINIG4Xil1TnZNtXwT-40" value="not existing&amp;nbsp;" style="connectable=0;recursiveResize=0;strokeColor=inherit;fillColor=inherit;whiteSpace=wrap;html=1;" vertex="1" parent="0XEINIG4Xil1TnZNtXwT-38">
          <mxGeometry x="172" width="176" height="69" as="geometry">
            <mxRectangle width="176" height="69" as="alternateBounds" />
          </mxGeometry>
        </mxCell>
        <mxCell id="0XEINIG4Xil1TnZNtXwT-41" value="add" style="connectable=0;recursiveResize=0;strokeColor=inherit;fillColor=inherit;whiteSpace=wrap;html=1;" vertex="1" parent="0XEINIG4Xil1TnZNtXwT-38">
          <mxGeometry x="348" width="172" height="69" as="geometry">
            <mxRectangle width="172" height="69" as="alternateBounds" />
          </mxGeometry>
        </mxCell>
        <mxCell id="0XEINIG4Xil1TnZNtXwT-42" value="" style="shape=tableRow;horizontal=0;startSize=0;swimlaneHead=0;swimlaneBody=0;top=0;left=0;bottom=0;right=0;dropTarget=0;collapsible=0;recursiveResize=0;expand=0;fontStyle=1;strokeColor=inherit;fillColor=#EAF2D3;" vertex="1" parent="0XEINIG4Xil1TnZNtXwT-21">
          <mxGeometry y="354" width="520" height="70" as="geometry" />
        </mxCell>
        <mxCell id="0XEINIG4Xil1TnZNtXwT-43" value="“MAKE A PAYMENT&quot; Button" style="connectable=0;recursiveResize=0;strokeColor=inherit;fillColor=inherit;whiteSpace=wrap;html=1;" vertex="1" parent="0XEINIG4Xil1TnZNtXwT-42">
          <mxGeometry width="172" height="70" as="geometry">
            <mxRectangle width="172" height="70" as="alternateBounds" />
          </mxGeometry>
        </mxCell>
        <mxCell id="0XEINIG4Xil1TnZNtXwT-44" value="existing" style="connectable=0;recursiveResize=0;strokeColor=inherit;fillColor=inherit;whiteSpace=wrap;html=1;" vertex="1" parent="0XEINIG4Xil1TnZNtXwT-42">
          <mxGeometry x="172" width="176" height="70" as="geometry">
            <mxRectangle width="176" height="70" as="alternateBounds" />
          </mxGeometry>
        </mxCell>
        <mxCell id="0XEINIG4Xil1TnZNtXwT-45" value="no change" style="connectable=0;recursiveResize=0;strokeColor=inherit;fillColor=inherit;whiteSpace=wrap;html=1;" vertex="1" parent="0XEINIG4Xil1TnZNtXwT-42">
          <mxGeometry x="348" width="172" height="70" as="geometry">
            <mxRectangle width="172" height="70" as="alternateBounds" />
          </mxGeometry>
        </mxCell>
        <mxCell id="0XEINIG4Xil1TnZNtXwT-71" value="" style="shape=tableRow;horizontal=0;startSize=0;swimlaneHead=0;swimlaneBody=0;top=0;left=0;bottom=0;right=0;dropTarget=0;collapsible=0;recursiveResize=0;expand=0;fontStyle=1;strokeColor=inherit;fillColor=#EAF2D3;" vertex="1" parent="0XEINIG4Xil1TnZNtXwT-21">
          <mxGeometry y="424" width="520" height="67" as="geometry" />
        </mxCell>
        <mxCell id="0XEINIG4Xil1TnZNtXwT-72" value="&quot;VIEW BILL&quot; Button" style="connectable=0;recursiveResize=0;strokeColor=inherit;fillColor=inherit;whiteSpace=wrap;html=1;" vertex="1" parent="0XEINIG4Xil1TnZNtXwT-71">
          <mxGeometry width="172" height="67" as="geometry">
            <mxRectangle width="172" height="67" as="alternateBounds" />
          </mxGeometry>
        </mxCell>
        <mxCell id="0XEINIG4Xil1TnZNtXwT-73" value="not existing" style="connectable=0;recursiveResize=0;strokeColor=inherit;fillColor=inherit;whiteSpace=wrap;html=1;" vertex="1" parent="0XEINIG4Xil1TnZNtXwT-71">
          <mxGeometry x="172" width="176" height="67" as="geometry">
            <mxRectangle width="176" height="67" as="alternateBounds" />
          </mxGeometry>
        </mxCell>
        <mxCell id="0XEINIG4Xil1TnZNtXwT-74" value="add" style="connectable=0;recursiveResize=0;strokeColor=inherit;fillColor=inherit;whiteSpace=wrap;html=1;" vertex="1" parent="0XEINIG4Xil1TnZNtXwT-71">
          <mxGeometry x="348" width="172" height="67" as="geometry">
            <mxRectangle width="172" height="67" as="alternateBounds" />
          </mxGeometry>
        </mxCell>
        <mxCell id="0XEINIG4Xil1TnZNtXwT-75" value="" style="shape=tableRow;horizontal=0;startSize=0;swimlaneHead=0;swimlaneBody=0;top=0;left=0;bottom=0;right=0;dropTarget=0;collapsible=0;recursiveResize=0;expand=0;fontStyle=1;strokeColor=inherit;fillColor=#EAF2D3;" vertex="1" parent="0XEINIG4Xil1TnZNtXwT-21">
          <mxGeometry y="491" width="520" height="69" as="geometry" />
        </mxCell>
        <mxCell id="0XEINIG4Xil1TnZNtXwT-76" value="Bill Summary Text" style="connectable=0;recursiveResize=0;strokeColor=inherit;fillColor=inherit;whiteSpace=wrap;html=1;" vertex="1" parent="0XEINIG4Xil1TnZNtXwT-75">
          <mxGeometry width="172" height="69" as="geometry">
            <mxRectangle width="172" height="69" as="alternateBounds" />
          </mxGeometry>
        </mxCell>
        <mxCell id="0XEINIG4Xil1TnZNtXwT-77" value="Existing Spelling as Billing" style="connectable=0;recursiveResize=0;strokeColor=inherit;fillColor=inherit;whiteSpace=wrap;html=1;" vertex="1" parent="0XEINIG4Xil1TnZNtXwT-75">
          <mxGeometry x="172" width="176" height="69" as="geometry">
            <mxRectangle width="176" height="69" as="alternateBounds" />
          </mxGeometry>
        </mxCell>
        <mxCell id="0XEINIG4Xil1TnZNtXwT-78" value="Change to Bill" style="connectable=0;recursiveResize=0;strokeColor=inherit;fillColor=inherit;whiteSpace=wrap;html=1;" vertex="1" parent="0XEINIG4Xil1TnZNtXwT-75">
          <mxGeometry x="348" width="172" height="69" as="geometry">
            <mxRectangle width="172" height="69" as="alternateBounds" />
          </mxGeometry>
        </mxCell>
      </root>
    </mxGraphModel>
  </diagram>
</mxfile>
